<mxfile host="app.diagrams.net" agent="Mozilla/5.0 (X11; Linux x86_64; rv:124.0) Gecko/20100101 Firefox/124.0" version="24.7.12">
  <diagram id="C5RBs43oDa-KdzZeNtuy" name="Page-1">
    <mxGraphModel dx="1007" dy="525" grid="1" gridSize="10" guides="1" tooltips="1" connect="1" arrows="1" fold="1" page="1" pageScale="1" pageWidth="827" pageHeight="1169" math="0" shadow="0">
      <root>
        <mxCell id="WIyWlLk6GJQsqaUBKTNV-0" />
        <mxCell id="WIyWlLk6GJQsqaUBKTNV-1" parent="WIyWlLk6GJQsqaUBKTNV-0" />
        <mxCell id="CYkOXEQmsJGQNZmcFLeB-7" style="edgeStyle=orthogonalEdgeStyle;rounded=0;orthogonalLoop=1;jettySize=auto;html=1;entryX=0.5;entryY=0;entryDx=0;entryDy=0;" edge="1" parent="WIyWlLk6GJQsqaUBKTNV-1" source="CYkOXEQmsJGQNZmcFLeB-0" target="CYkOXEQmsJGQNZmcFLeB-4">
          <mxGeometry relative="1" as="geometry" />
        </mxCell>
        <mxCell id="CYkOXEQmsJGQNZmcFLeB-0" value="&lt;h3&gt;Start&lt;/h3&gt;" style="ellipse;whiteSpace=wrap;html=1;fontFamily=Verdana;" vertex="1" parent="WIyWlLk6GJQsqaUBKTNV-1">
          <mxGeometry x="198.99" y="35" width="80" height="50" as="geometry" />
        </mxCell>
        <mxCell id="CYkOXEQmsJGQNZmcFLeB-1" value="&lt;h3&gt;End&lt;/h3&gt;" style="ellipse;whiteSpace=wrap;html=1;fontFamily=Verdana;" vertex="1" parent="WIyWlLk6GJQsqaUBKTNV-1">
          <mxGeometry x="199" y="1100" width="80" height="50" as="geometry" />
        </mxCell>
        <mxCell id="CYkOXEQmsJGQNZmcFLeB-8" style="edgeStyle=orthogonalEdgeStyle;rounded=0;orthogonalLoop=1;jettySize=auto;html=1;" edge="1" parent="WIyWlLk6GJQsqaUBKTNV-1" source="CYkOXEQmsJGQNZmcFLeB-4" target="CYkOXEQmsJGQNZmcFLeB-6">
          <mxGeometry relative="1" as="geometry" />
        </mxCell>
        <mxCell id="CYkOXEQmsJGQNZmcFLeB-4" value="&lt;pre&gt;&lt;font face=&quot;Verdana&quot;&gt;Input&lt;/font&gt; productNum&lt;/pre&gt;" style="shape=parallelogram;perimeter=parallelogramPerimeter;whiteSpace=wrap;html=1;fixedSize=1;fontFamily=Verdana;" vertex="1" parent="WIyWlLk6GJQsqaUBKTNV-1">
          <mxGeometry x="147.98" y="125" width="182.02" height="50" as="geometry" />
        </mxCell>
        <mxCell id="CYkOXEQmsJGQNZmcFLeB-14" value="" style="edgeStyle=orthogonalEdgeStyle;rounded=0;orthogonalLoop=1;jettySize=auto;html=1;" edge="1" parent="WIyWlLk6GJQsqaUBKTNV-1" source="CYkOXEQmsJGQNZmcFLeB-6" target="CYkOXEQmsJGQNZmcFLeB-13">
          <mxGeometry relative="1" as="geometry" />
        </mxCell>
        <mxCell id="CYkOXEQmsJGQNZmcFLeB-47" value="No" style="edgeLabel;html=1;align=center;verticalAlign=middle;resizable=0;points=[];fontFamily=Verdana;fontSize=17;" vertex="1" connectable="0" parent="CYkOXEQmsJGQNZmcFLeB-14">
          <mxGeometry x="0.1113" y="-1" relative="1" as="geometry">
            <mxPoint x="-7" y="-1" as="offset" />
          </mxGeometry>
        </mxCell>
        <mxCell id="CYkOXEQmsJGQNZmcFLeB-25" style="edgeStyle=orthogonalEdgeStyle;rounded=0;orthogonalLoop=1;jettySize=auto;html=1;" edge="1" parent="WIyWlLk6GJQsqaUBKTNV-1" source="CYkOXEQmsJGQNZmcFLeB-6" target="CYkOXEQmsJGQNZmcFLeB-24">
          <mxGeometry relative="1" as="geometry" />
        </mxCell>
        <mxCell id="CYkOXEQmsJGQNZmcFLeB-48" value="Yes" style="edgeLabel;html=1;align=center;verticalAlign=middle;resizable=0;points=[];fontFamily=Verdana;fontSize=17;" vertex="1" connectable="0" parent="CYkOXEQmsJGQNZmcFLeB-25">
          <mxGeometry x="-0.4" relative="1" as="geometry">
            <mxPoint x="-2" y="4" as="offset" />
          </mxGeometry>
        </mxCell>
        <mxCell id="CYkOXEQmsJGQNZmcFLeB-6" value="&lt;pre&gt;if productNum &amp;gt;= 0 &amp;amp;&amp;amp; &amp;lt;= 50&lt;/pre&gt;" style="rhombus;whiteSpace=wrap;html=1;fontFamily=Verdana;" vertex="1" parent="WIyWlLk6GJQsqaUBKTNV-1">
          <mxGeometry x="107.98" y="215" width="262.02" height="90" as="geometry" />
        </mxCell>
        <mxCell id="CYkOXEQmsJGQNZmcFLeB-63" style="edgeStyle=orthogonalEdgeStyle;rounded=0;orthogonalLoop=1;jettySize=auto;html=1;entryX=1;entryY=0.5;entryDx=0;entryDy=0;" edge="1" parent="WIyWlLk6GJQsqaUBKTNV-1" source="CYkOXEQmsJGQNZmcFLeB-13" target="CYkOXEQmsJGQNZmcFLeB-1">
          <mxGeometry relative="1" as="geometry">
            <mxPoint x="720" y="900" as="targetPoint" />
            <Array as="points">
              <mxPoint x="730" y="260" />
              <mxPoint x="730" y="1125" />
            </Array>
          </mxGeometry>
        </mxCell>
        <mxCell id="CYkOXEQmsJGQNZmcFLeB-13" value="Output &quot;invalid Product&quot;" style="shape=parallelogram;perimeter=parallelogramPerimeter;whiteSpace=wrap;html=1;fixedSize=1;fontFamily=Verdana;" vertex="1" parent="WIyWlLk6GJQsqaUBKTNV-1">
          <mxGeometry x="475" y="237.5" width="188" height="45" as="geometry" />
        </mxCell>
        <mxCell id="CYkOXEQmsJGQNZmcFLeB-60" value="" style="edgeStyle=orthogonalEdgeStyle;rounded=0;orthogonalLoop=1;jettySize=auto;html=1;" edge="1" parent="WIyWlLk6GJQsqaUBKTNV-1" source="CYkOXEQmsJGQNZmcFLeB-24" target="CYkOXEQmsJGQNZmcFLeB-59">
          <mxGeometry relative="1" as="geometry" />
        </mxCell>
        <mxCell id="CYkOXEQmsJGQNZmcFLeB-24" value="&lt;pre&gt;cost = GetProductCost(productNum)&lt;/pre&gt;" style="shape=process;whiteSpace=wrap;html=1;backgroundOutline=1;" vertex="1" parent="WIyWlLk6GJQsqaUBKTNV-1">
          <mxGeometry x="57.99" y="380" width="362.01" height="41" as="geometry" />
        </mxCell>
        <mxCell id="CYkOXEQmsJGQNZmcFLeB-29" value="" style="edgeStyle=orthogonalEdgeStyle;rounded=0;orthogonalLoop=1;jettySize=auto;html=1;" edge="1" parent="WIyWlLk6GJQsqaUBKTNV-1" target="CYkOXEQmsJGQNZmcFLeB-28">
          <mxGeometry relative="1" as="geometry">
            <mxPoint x="238.99500000000012" y="662.5" as="sourcePoint" />
          </mxGeometry>
        </mxCell>
        <mxCell id="CYkOXEQmsJGQNZmcFLeB-52" value="&lt;font style=&quot;font-size: 17px;&quot; face=&quot;Verdana&quot;&gt;No&lt;/font&gt;" style="edgeLabel;html=1;align=center;verticalAlign=middle;resizable=0;points=[];" vertex="1" connectable="0" parent="CYkOXEQmsJGQNZmcFLeB-29">
          <mxGeometry x="-0.125" relative="1" as="geometry">
            <mxPoint as="offset" />
          </mxGeometry>
        </mxCell>
        <mxCell id="CYkOXEQmsJGQNZmcFLeB-44" style="edgeStyle=orthogonalEdgeStyle;rounded=0;orthogonalLoop=1;jettySize=auto;html=1;entryX=0;entryY=0.5;entryDx=0;entryDy=0;" edge="1" parent="WIyWlLk6GJQsqaUBKTNV-1" target="CYkOXEQmsJGQNZmcFLeB-33">
          <mxGeometry relative="1" as="geometry">
            <mxPoint x="327.99" y="622.5" as="sourcePoint" />
          </mxGeometry>
        </mxCell>
        <mxCell id="CYkOXEQmsJGQNZmcFLeB-51" value="&lt;font style=&quot;font-size: 17px;&quot; face=&quot;Verdana&quot;&gt;Yes&lt;/font&gt;" style="edgeLabel;html=1;align=center;verticalAlign=middle;resizable=0;points=[];" vertex="1" connectable="0" parent="CYkOXEQmsJGQNZmcFLeB-44">
          <mxGeometry x="-0.1622" relative="1" as="geometry">
            <mxPoint as="offset" />
          </mxGeometry>
        </mxCell>
        <mxCell id="CYkOXEQmsJGQNZmcFLeB-26" value="&lt;pre&gt;if cost &amp;gt; payment&lt;/pre&gt;" style="rhombus;whiteSpace=wrap;html=1;" vertex="1" parent="WIyWlLk6GJQsqaUBKTNV-1">
          <mxGeometry x="150" y="582.5" width="177.99" height="80" as="geometry" />
        </mxCell>
        <mxCell id="CYkOXEQmsJGQNZmcFLeB-41" value="" style="edgeStyle=orthogonalEdgeStyle;rounded=0;orthogonalLoop=1;jettySize=auto;html=1;entryX=0;entryY=0.5;entryDx=0;entryDy=0;" edge="1" parent="WIyWlLk6GJQsqaUBKTNV-1" source="CYkOXEQmsJGQNZmcFLeB-28" target="CYkOXEQmsJGQNZmcFLeB-38">
          <mxGeometry relative="1" as="geometry">
            <mxPoint x="424.01" y="840" as="targetPoint" />
          </mxGeometry>
        </mxCell>
        <mxCell id="CYkOXEQmsJGQNZmcFLeB-53" value="&lt;font style=&quot;font-size: 17px;&quot; face=&quot;Verdana&quot;&gt;No&lt;/font&gt;" style="edgeLabel;html=1;align=center;verticalAlign=middle;resizable=0;points=[];" vertex="1" connectable="0" parent="CYkOXEQmsJGQNZmcFLeB-41">
          <mxGeometry x="-0.0321" relative="1" as="geometry">
            <mxPoint as="offset" />
          </mxGeometry>
        </mxCell>
        <mxCell id="CYkOXEQmsJGQNZmcFLeB-67" style="edgeStyle=orthogonalEdgeStyle;rounded=0;orthogonalLoop=1;jettySize=auto;html=1;exitX=0.5;exitY=1;exitDx=0;exitDy=0;entryX=0.5;entryY=0;entryDx=0;entryDy=0;" edge="1" parent="WIyWlLk6GJQsqaUBKTNV-1" source="CYkOXEQmsJGQNZmcFLeB-28" target="CYkOXEQmsJGQNZmcFLeB-35">
          <mxGeometry relative="1" as="geometry" />
        </mxCell>
        <mxCell id="CYkOXEQmsJGQNZmcFLeB-68" value="&lt;font style=&quot;font-size: 17px;&quot; face=&quot;Verdana&quot;&gt;Yes&lt;/font&gt;" style="edgeLabel;html=1;align=center;verticalAlign=middle;resizable=0;points=[];" vertex="1" connectable="0" parent="CYkOXEQmsJGQNZmcFLeB-67">
          <mxGeometry x="-0.119" y="1" relative="1" as="geometry">
            <mxPoint as="offset" />
          </mxGeometry>
        </mxCell>
        <mxCell id="CYkOXEQmsJGQNZmcFLeB-28" value="&lt;pre&gt;if cost == payment&lt;/pre&gt;" style="rhombus;whiteSpace=wrap;html=1;" vertex="1" parent="WIyWlLk6GJQsqaUBKTNV-1">
          <mxGeometry x="147.98000000000002" y="800" width="182.01" height="80" as="geometry" />
        </mxCell>
        <mxCell id="CYkOXEQmsJGQNZmcFLeB-64" value="" style="edgeStyle=orthogonalEdgeStyle;rounded=0;orthogonalLoop=1;jettySize=auto;html=1;" edge="1" parent="WIyWlLk6GJQsqaUBKTNV-1" source="CYkOXEQmsJGQNZmcFLeB-33" target="CYkOXEQmsJGQNZmcFLeB-62">
          <mxGeometry relative="1" as="geometry" />
        </mxCell>
        <mxCell id="CYkOXEQmsJGQNZmcFLeB-33" value="Output &quot;Insufficient funds&quot;" style="shape=parallelogram;perimeter=parallelogramPerimeter;whiteSpace=wrap;html=1;fixedSize=1;fontFamily=Verdana;" vertex="1" parent="WIyWlLk6GJQsqaUBKTNV-1">
          <mxGeometry x="414" y="600" width="216" height="45" as="geometry" />
        </mxCell>
        <mxCell id="CYkOXEQmsJGQNZmcFLeB-66" style="edgeStyle=orthogonalEdgeStyle;rounded=0;orthogonalLoop=1;jettySize=auto;html=1;exitX=0.5;exitY=1;exitDx=0;exitDy=0;" edge="1" parent="WIyWlLk6GJQsqaUBKTNV-1" source="CYkOXEQmsJGQNZmcFLeB-35" target="CYkOXEQmsJGQNZmcFLeB-1">
          <mxGeometry relative="1" as="geometry" />
        </mxCell>
        <mxCell id="CYkOXEQmsJGQNZmcFLeB-35" value="&lt;pre&gt;giveProductToCustomer&lt;/pre&gt;" style="shape=process;whiteSpace=wrap;html=1;backgroundOutline=1;" vertex="1" parent="WIyWlLk6GJQsqaUBKTNV-1">
          <mxGeometry x="127.99" y="1000" width="222.01" height="45" as="geometry" />
        </mxCell>
        <mxCell id="CYkOXEQmsJGQNZmcFLeB-42" style="edgeStyle=orthogonalEdgeStyle;rounded=0;orthogonalLoop=1;jettySize=auto;html=1;exitX=0.5;exitY=1;exitDx=0;exitDy=0;entryX=1;entryY=0.5;entryDx=0;entryDy=0;" edge="1" parent="WIyWlLk6GJQsqaUBKTNV-1" source="CYkOXEQmsJGQNZmcFLeB-37" target="CYkOXEQmsJGQNZmcFLeB-35">
          <mxGeometry relative="1" as="geometry" />
        </mxCell>
        <mxCell id="CYkOXEQmsJGQNZmcFLeB-37" value="&lt;pre&gt;giveMoneyToCustomer(change)&lt;br&gt;&lt;/pre&gt;" style="shape=process;whiteSpace=wrap;html=1;backgroundOutline=1;" vertex="1" parent="WIyWlLk6GJQsqaUBKTNV-1">
          <mxGeometry x="378" y="920" width="282.01" height="40" as="geometry" />
        </mxCell>
        <mxCell id="CYkOXEQmsJGQNZmcFLeB-40" value="" style="edgeStyle=orthogonalEdgeStyle;rounded=0;orthogonalLoop=1;jettySize=auto;html=1;" edge="1" parent="WIyWlLk6GJQsqaUBKTNV-1" source="CYkOXEQmsJGQNZmcFLeB-38" target="CYkOXEQmsJGQNZmcFLeB-37">
          <mxGeometry relative="1" as="geometry" />
        </mxCell>
        <mxCell id="CYkOXEQmsJGQNZmcFLeB-38" value="&lt;pre&gt;change = cost - payment&lt;/pre&gt;" style="whiteSpace=wrap;html=1;" vertex="1" parent="WIyWlLk6GJQsqaUBKTNV-1">
          <mxGeometry x="428" y="816" width="182.01" height="50" as="geometry" />
        </mxCell>
        <mxCell id="CYkOXEQmsJGQNZmcFLeB-61" value="" style="edgeStyle=orthogonalEdgeStyle;rounded=0;orthogonalLoop=1;jettySize=auto;html=1;" edge="1" parent="WIyWlLk6GJQsqaUBKTNV-1" source="CYkOXEQmsJGQNZmcFLeB-59" target="CYkOXEQmsJGQNZmcFLeB-26">
          <mxGeometry relative="1" as="geometry" />
        </mxCell>
        <mxCell id="CYkOXEQmsJGQNZmcFLeB-59" value="&lt;pre&gt;payment = TakeMoneyFromCustomer&lt;/pre&gt;" style="shape=process;whiteSpace=wrap;html=1;backgroundOutline=1;" vertex="1" parent="WIyWlLk6GJQsqaUBKTNV-1">
          <mxGeometry x="77.98" y="480" width="322.03" height="40" as="geometry" />
        </mxCell>
        <mxCell id="CYkOXEQmsJGQNZmcFLeB-65" style="edgeStyle=orthogonalEdgeStyle;rounded=0;orthogonalLoop=1;jettySize=auto;html=1;" edge="1" parent="WIyWlLk6GJQsqaUBKTNV-1" source="CYkOXEQmsJGQNZmcFLeB-62">
          <mxGeometry relative="1" as="geometry">
            <mxPoint x="730" y="710" as="targetPoint" />
          </mxGeometry>
        </mxCell>
        <mxCell id="CYkOXEQmsJGQNZmcFLeB-62" value="&lt;pre&gt;giveMoneyToCustomer(payment)&lt;br&gt;&lt;/pre&gt;" style="shape=process;whiteSpace=wrap;html=1;backgroundOutline=1;" vertex="1" parent="WIyWlLk6GJQsqaUBKTNV-1">
          <mxGeometry x="380.99" y="690" width="282.01" height="40" as="geometry" />
        </mxCell>
      </root>
    </mxGraphModel>
  </diagram>
</mxfile>
